<?xml version="1.0" encoding="iso-8859-1"?>
<!-- Generator: Adobe Illustrator 19.0.0, SVG Export Plug-In . SVG Version: 6.00 Build 0)  -->
<svg version="1.1" id="Layer_1" xmlns="http://www.w3.org/2000/svg" xmlns:xlink="http://www.w3.org/1999/xlink" x="0px" y="0px"
	 viewBox="0 0 512 512" style="enable-background:new 0 0 512 512;" xml:space="preserve">
<path style="fill:#F28838;" d="M240.488,0h-11.122h-13.336h-11.124h-68.539h-11.122h-13.336h-11.124
	c-3.489,0-6.318,2.829-6.318,6.319v85.305c0,3.489,2.828,6.319,6.318,6.319h11.124h13.336h11.122h68.539h11.124h13.336h11.122
	c3.492,0,6.32-2.829,6.32-6.319V6.319C246.806,2.829,243.978,0,240.488,0z"/>
<path style="fill:#EF711D;" d="M116.726,91.622V6.319c0-3.489,2.828-6.319,6.318-6.319h-11.137h-11.124
	c-3.489,0-6.318,2.829-6.318,6.319v85.305c0,3.489,2.828,6.319,6.318,6.319h11.124h11.137
	C119.554,97.941,116.726,95.112,116.726,91.622z"/>
<path style="fill:#CCC3A8;" d="M429.279,187.022h-0.002H256.485h-0.002c-5.344,0-9.676,4.333-9.676,9.677v92.692v27.826v96.84
	v88.265c0,5.344,4.333,9.677,9.676,9.677h63.302h46.191h63.302c5.344,0,9.676-4.334,9.676-9.677v-88.265v-96.84v-27.826V196.7
	C438.954,191.356,434.621,187.022,429.279,187.022z"/>
<path style="fill:#F28838;" d="M505.68,414.058h-11.124h-13.334h-11.124h-68.539h-11.124h-13.334h-11.124
	c-3.489,0-6.32,2.83-6.32,6.32v85.305c0,3.489,2.83,6.318,6.32,6.318h11.124h13.334h11.124h68.539h11.124h13.334h11.124
	c3.489,0,6.32-2.828,6.32-6.318v-85.305C512,416.888,509.169,414.058,505.68,414.058z"/>
<path style="fill:#EA6428;" d="M240.488,0h-11.122h-13.336h-11.124h-68.539h-11.122h-13.336h-11.124
	c-3.489,0-6.318,2.829-6.318,6.319v28.123h152.339V6.319C246.806,2.829,243.978,0,240.488,0z"/>
<path style="fill:#DD4D14;" d="M116.726,6.319c0-3.489,2.828-6.319,6.318-6.319h-11.137h-11.124c-3.489,0-6.318,2.829-6.318,6.319
	v28.123h22.261V6.319z"/>
<path style="fill:#4BAF78;" d="M210.737,512h22.713c7.376,0,13.357-5.979,13.357-13.357V318.327c0-7.376-5.98-13.357-13.357-13.357
	H13.357C5.98,304.971,0,310.951,0,318.327v180.316C0,506.021,5.98,512,13.357,512H182.17"/>
<path style="fill:#FFB92E;" d="M246.806,111.298c0-7.376-5.98-13.357-13.357-13.357H13.357C5.98,97.941,0,103.922,0,111.298v180.316
	c0,7.377,5.98,13.357,13.357,13.357H233.45c7.376,0,13.357-5.979,13.357-13.357V111.298z"/>
<path style="fill:#C9B585;" d="M269.067,502.323v-88.265v-96.84v-27.826V196.7c0-5.345,4.333-9.677,9.676-9.677h-22.259h-0.002
	c-5.344,0-9.676,4.333-9.676,9.677v92.691v27.826v96.84v88.265c0,5.344,4.333,9.677,9.676,9.677h22.261
	C273.4,512,269.067,507.666,269.067,502.323z"/>
<path style="fill:#EF711D;" d="M381.917,505.681v-85.305c0-3.489,2.83-6.32,6.32-6.32H377.1h-11.124c-3.489,0-6.32,2.83-6.32,6.32
	v85.305c0,3.489,2.83,6.318,6.32,6.318H377.1h11.137C384.748,511.999,381.917,509.171,381.917,505.681z"/>
<path style="fill:#299956;" d="M22.261,498.643V318.327c0-7.376,5.98-13.357,13.357-13.357H13.357C5.98,304.971,0,310.951,0,318.327
	v180.316C0,506.021,5.98,512,13.357,512h22.261C28.241,512,22.261,506.021,22.261,498.643z"/>
<path style="fill:#EF9A1D;" d="M22.261,291.614V111.298c0-7.376,5.98-13.357,13.357-13.357H13.357C5.98,97.941,0,103.922,0,111.298
	v180.316c0,7.377,5.98,13.357,13.357,13.357h22.261C28.241,304.971,22.261,298.991,22.261,291.614z"/>
<g>
	<path style="fill:#7C7A75;" d="M88.9,97.941v103.514c0,2.134,1.22,4.079,3.14,5.009c1.921,0.93,4.203,0.681,5.877-0.643
		l25.486-20.146l25.489,20.146c1.001,0.792,2.222,1.2,3.452,1.2c0.825,0,1.654-0.183,2.425-0.557
		c1.92-0.929,3.139-2.875,3.139-5.009V97.941H88.9z"/>
	<path style="fill:#7C7A75;" d="M88.9,304.971v103.514c0,2.134,1.22,4.079,3.14,5.009c1.921,0.93,4.203,0.679,5.877-0.642
		l25.486-20.147l25.489,20.147c1.001,0.791,2.222,1.199,3.452,1.199c0.825,0,1.654-0.184,2.425-0.557
		c1.92-0.929,3.139-2.875,3.139-5.009V304.971H88.9z"/>
	<path style="fill:#7C7A75;" d="M368.37,294.903c1.002,0.791,2.222,1.199,3.452,1.199c0.825,0,1.654-0.184,2.425-0.557
		c1.92-0.929,3.139-2.875,3.139-5.009V187.022h-69.009v103.514c0,2.134,1.22,4.079,3.14,5.009c1.921,0.932,4.203,0.679,5.877-0.642
		l25.486-20.147L368.37,294.903z"/>
</g>
<path style="fill:#F9D19B;" d="M211.828,250.372h-47.861c-4.611,0-8.348-3.738-8.348-8.348c0-4.61,3.736-8.348,8.348-8.348h47.861
	c4.611,0,8.348,3.738,8.348,8.348C220.176,246.635,216.439,250.372,211.828,250.372z"/>
<g>
	<path style="fill:#FCA468;" d="M462.47,487.451h-47.861c-4.61,0-8.348-3.736-8.348-8.348c0-4.611,3.738-8.348,8.348-8.348h47.861
		c4.611,0,8.348,3.736,8.348,8.348C470.817,483.714,467.081,487.451,462.47,487.451z"/>
	<path style="fill:#FCA468;" d="M196.452,73.399h-47.861c-4.61,0-8.348-3.738-8.348-8.348s3.738-8.348,8.348-8.348h47.861
		c4.611,0,8.348,3.738,8.348,8.348S201.064,73.399,196.452,73.399z"/>
</g>
<path style="fill:#F9D19B;" d="M211.828,278.199h-47.861c-4.611,0-8.348-3.736-8.348-8.348c0-4.611,3.736-8.348,8.348-8.348h47.861
	c4.611,0,8.348,3.736,8.348,8.348C220.176,274.462,216.439,278.199,211.828,278.199z"/>
<g>
	<path style="fill:#61C98D;" d="M211.828,455.172h-47.861c-4.611,0-8.348-3.736-8.348-8.348c0-4.611,3.736-8.348,8.348-8.348h47.861
		c4.611,0,8.348,3.736,8.348,8.348C220.176,451.436,216.439,455.172,211.828,455.172z"/>
	<path style="fill:#61C98D;" d="M211.828,482.999h-47.861c-4.611,0-8.348-3.736-8.348-8.348c0-4.611,3.736-8.348,8.348-8.348h47.861
		c4.611,0,8.348,3.736,8.348,8.348C220.176,479.262,216.439,482.999,211.828,482.999z"/>
</g>
<path style="fill:#EA6428;" d="M505.68,414.058h-11.124h-13.334h-11.124h-68.539h-11.124h-13.334h-11.124
	c-3.489,0-6.32,2.83-6.32,6.32v28.124H512v-28.124C512,416.888,509.169,414.058,505.68,414.058z"/>
<path style="fill:#DD4D14;" d="M381.917,420.378c0-3.489,2.83-6.32,6.32-6.32H377.1h-11.124c-3.489,0-6.32,2.83-6.32,6.32v28.124
	h22.261V420.378z"/>
<g>
	<path style="fill:#605E5A;" d="M88.9,304.971v103.514c0,2.134,1.22,4.079,3.14,5.009c1.921,0.93,4.203,0.679,5.877-0.642
		l25.486-20.147v-87.733H88.9z"/>
	<path style="fill:#605E5A;" d="M88.9,97.941v103.514c0,2.134,1.22,4.079,3.14,5.009c1.921,0.93,4.203,0.681,5.877-0.643
		l25.486-20.146V97.941H88.9z"/>
	<path style="fill:#605E5A;" d="M342.882,187.022h-34.505v103.514c0,2.134,1.22,4.079,3.14,5.009
		c1.921,0.932,4.203,0.679,5.877-0.642l25.486-20.147h0.001v-87.733H342.882z"/>
</g>
<g>
</g>
<g>
</g>
<g>
</g>
<g>
</g>
<g>
</g>
<g>
</g>
<g>
</g>
<g>
</g>
<g>
</g>
<g>
</g>
<g>
</g>
<g>
</g>
<g>
</g>
<g>
</g>
<g>
</g>
</svg>
